<?xml version="1.0" encoding="utf-8"?>
<!-- Generator: Adobe Illustrator 22.1.0, SVG Export Plug-In . SVG Version: 6.00 Build 0)  -->
<svg version="1.1" id="レイヤー_1" xmlns="http://www.w3.org/2000/svg" xmlns:xlink="http://www.w3.org/1999/xlink" x="0px"
	 y="0px" width="241.6px" height="300px" viewBox="0 0 241.6 300" style="enable-background:new 0 0 241.6 300;"
	 xml:space="preserve">
<style type="text/css">
	.st0{fill:#5BBEE4;}
	.st1{fill:#7F1083;}
	.st2{fill:#FFFFFF;}
	.st3{fill:#7CC7E8;}
</style>
<path class="st0" d="M118.3,253.9c-0.2,0-2.2,1.6-3.3,2.4H94.1c-1.9-0.8-5.4-2.1-5.5-2.2c-0.1-0.1-0.4-0.1-0.3,0
	c1.2,12.4,0.8,32,0.4,43.7l0,0c0,0.1,0.1,0.2,0.2,0.2h4.9c0.1,0,0.2-0.1,0.2-0.2c0-1,0-2.2,0-3.3h22.4c0,1.2,0,2.3,0,3.3
	c0,0.1,0.1,0.2,0.2,0.2h4.5c0.1,0,0.2-0.1,0.2-0.2l0,0c-0.1-10.4-0.3-26.9,0.2-39c0.7-1.2,1.9-1.5,1.6-1.8
	C122.7,256.5,118.6,253.9,118.3,253.9 M116.3,273.4H94c0-7.3,0-13.6,0-15.9h22.5C116.4,259.9,116.3,266.1,116.3,273.4 M93.9,293.4
	c0-5.7,0-12.6,0-18.8h22.4c0,6.2,0,13.1,0,18.8H93.9z"/>
<path class="st0" d="M169.6,288.6L169.6,288.6c-0.1-8.2-0.2-9.2,0.1-17.4c0.6-1,1.5-1.2,1.3-1.5c-0.3-0.4-3.6-2.4-3.8-2.4
	s-2.4,1.7-3,2.2h-8.7c-0.8-0.4-4.7-2-4.8-2.1c-0.1,0-0.3-0.1-0.3,0c1,9.9,0.6,11.9,0.3,21.3l0,0c0,0.1,0.1,0.1,0.1,0.1h3.6
	c0.1,0,0.1-0.1,0.1-0.1c0-1.3,0-2.5,0-3.7h11c0,1.1,0,2.3,0,3.5c0,0.1,0.1,0.1,0.1,0.1h3.6C169.5,288.7,169.6,288.7,169.6,288.6
	 M154.7,283.9c0-6.3,0-11,0-13.2h11c0,2.2,0,6.9,0,13.2H154.7z"/>
<path class="st0" d="M177.7,257.5c-0.2,0-2.4,1.8-3.3,2.6h-19.5c1.2-1,4.7-3.9,5.5-4.6c0.9-0.9,2.2-0.5,2.4-1s-2.5-1.6-6.3-2.8
	c-0.2,1.3-1.6,6.5-2.9,8.4h-8.1c-1.7-0.8-5-2.1-5.1-2.2s-0.4-0.1-0.3,0c1.2,12.4,0.8,28.2,0.4,39.9l0,0c0,0.1,0.1,0.2,0.2,0.2h4.5
	c0.1,0,0.2-0.1,0.2-0.2c0.1-12.5,0-32,0-36.6H176c0,4.2-0.1,19.3,0,31.2c0,1.7-1,1.8-2.1,1.7c-1.7-0.2-5.4-0.7-5.6-0.5
	c-0.2,0.1-0.6,0.5,0.2,0.7c2.4,0.7,7.2,3.2,9.4,5c0.5-0.1,0.9-0.3,1.2-0.5c0.9-0.6,1.3-1.7,1.3-2.7c-0.1-10.3-0.3-22.1,0.2-33.7
	c0.7-1.2,1.9-1.5,1.6-1.8C181.8,260.1,178,257.5,177.7,257.5 M180,264.3v0.4l-0.2,1.4L180,264.3z M180,264.6c0-0.6,0.1-1,0.2-1.4
	L180,264.6z"/>
<path class="st0" d="M241.5,298.4c-5.4-3.6-9.5-7.5-12.6-11.5c0.9-1.1,1.8-2.3,2.7-3.6c4.6-6.1,5.6-15.9,5.6-15.9h-20
	c0-1.4,0.1-2.9,0.1-4.4c0-1,0-3.5,0-5.3H237c0,0,2.5,0,2.5-0.4c0-0.6-4.9-4.6-5.2-4.6c-0.2,0-2.5,2.8-3.4,3.9h-12.6
	c-0.3-0.2-0.8-0.4-1.2-0.6l0,0H217c-2-1-4.7-2.3-4.7-2.3c-0.1-0.1-0.4-0.1-0.3,0c0.3,3.3,0.5,6.4,0.6,9.4c0,7,0.4,12.6-1.2,18.9
	c-1.9,0.7-4.3,1.4-6.8,2c0-5.2,0-10.6,0-15.4h6.5v-1.1c-0.7,0-2.4-2.9-3-2.9c-0.5,0-1.6,2.3-2.5,2.9h-1c0-6,0-10.8,0-12.3
	c1-0.3,1.2-1.3,1-1.3c-0.7-0.2-5.7-1.5-5.9-1.5c-0.1-0.1-0.4-0.1-0.3,0c0.5,5.4,0.7,10.3,0.8,15.2h-5.3v1.1h5.3
	c0,5.5-0.2,10.9-0.4,16.5c-3.3,0.7-5.9,1.3-6.1,1.4c0,1.1,1.1,4.6,1.8,5.3c0.3,0.3,0.7-0.7,1.5-1.1c0.7-0.4,9.1-4.5,14-7.7
	c-1,3.3-2.6,6.9-5.2,11c-0.2,0.3,0.2,0.9,0.7,0.5c7.8-6.4,10-15.4,10.5-26h15.1c-0.1,3.7-1.6,9.3-5.5,15.2
	c-2.1-3.4-3.6-6.9-4.5-10.3h-4c0-0.1,1.4,7,6.2,13.3c-3,3.7-7.2,7.4-12.7,10.8c-0.5,0.3-0.1,1,0.3,0.9c0.8-0.2,8.1-2.7,14.5-9.1
	l0.1,0.1c6.7,6.8,14.2,9.2,14.6,9.3C241.6,298.9,241.7,298.5,241.5,298.4"/>
<polygon class="st1" points="223.5,37.6 223.5,230.7 37,230.7 22.7,245.5 239.2,245.5 239.2,21.3 "/>
<polygon class="st0" points="0,224.2 216.5,224.2 216.5,0 "/>
<path class="st2" d="M166.5,167.1l-27.9,37.7h22.5v9.2h5.4v-9.2h5.8v-1.6h-5.8V167.1z M161.1,203.3h-19.4l19.4-26.3V203.3z"/>
<path class="st2" d="M191.5,183.5c-4.2,0-8,1.7-10.8,4.5l0,0c-0.5-11.3,4.6-20.4,13.3-19.4c5.2,1,9.3,5,10.2,10.3l1.5-0.3
	c-1.1-6.9-7.3-12-14.4-11.9c-5.3,0.1-10.2,3.4-12.6,8.4c-2.3,4.7-3.5,11.1-3,23.2c0.5,10.6,7.6,16.5,15.9,16.5
	c8.6,0,15.5-7.1,15.5-15.8C207.1,190.6,200.1,183.5,191.5,183.5 M191.1,213.5c-5.6,0-10.2-5.9-10.5-13.5c0-0.2,0-0.4,0-0.7l0,0
	c0-7.8,4.7-14.2,10.5-14.2s10.5,6.4,10.5,14.2S196.9,213.5,191.1,213.5"/>
<polyline class="st3" points="200.7,251.8 200.7,251.8 200.6,251.7 200.4,252 "/>
</svg>
