<svg xmlns="http://www.w3.org/2000/svg" viewBox="0 0 217.3 286.22">
  <defs>
    <style>
      .cls-1 {
        fill: #7f1084;
      }

      .cls-2 {
        fill: #fff;
      }

      .cls-3 {
        fill: #f19db5;
      }
    </style>
  </defs>
  <g id="レイヤー_2" data-name="レイヤー 2">
    <g id="design">
      <g>
        <g>
          <polygon class="cls-1" points="201.07 33.83 201.07 207.55 33.3 207.55 20.43 220.88 215.22 220.88 215.22 19.18 201.07 33.83"/>
          <polygon class="cls-2" points="2.64 200.59 193.66 2.78 193.66 200.59 2.64 200.59"/>
          <path class="cls-3" d="M192.53,5.55V199.47H5.28ZM194.78,0,0,201.71H194.78Z"/>
          <path class="cls-3" d="M149.83,150.37,124.75,184.3H145v8.26h4.86V184.3H155v-1.4h-5.19ZM145,182.9H127.5L145,159.27Z"/>
          <path class="cls-3" d="M172.32,165.1a13.7,13.7,0,0,0-9.75,4.07v0c-.47-10.17,4.16-18.37,11.94-17.41a11.4,11.4,0,0,1,9.18,9.29l1.39-.22a12.87,12.87,0,0,0-13-10.68,13.22,13.22,0,0,0-11.37,7.58c-2.1,4.27-3.19,10-2.7,20.91.41,9.52,6.83,14.84,14.29,14.84a14.18,14.18,0,0,0,0-28.36m-.37,27c-5.06,0-9.2-5.33-9.43-12.16,0-.21,0-.4,0-.61h0c0-7.05,4.23-12.78,9.44-12.78s9.42,5.73,9.42,12.78-4.22,12.77-9.42,12.77"/>
        </g>
        <line class="cls-3" x1="90.88" y1="274.14" x2="91.19" y2="274.37"/>
        <line class="cls-3" x1="90.9" y1="274.13" x2="91.21" y2="274.36"/>
        <path class="cls-3" d="M111.13,248.23v-.91l-2.5-2.39-2.38,2.29h-2.41V236.56l2-2h-5.53v12.62H92.71v1.19h7.22c-.55,7.47-4.33,18.1-9,25.72l.31.23c3.94-3.85,7.11-9.75,9.14-14.28v26.14h3.49V248.41h7.29Z"/>
        <path class="cls-3" d="M110.7,259.74c0,.16,0,.27,0,.42a2.15,2.15,0,0,1-.24,1,1.45,1.45,0,0,1-.73.62,1.22,1.22,0,0,1-.41.07,1.44,1.44,0,0,1-1.16-.66,4.6,4.6,0,0,1-.44-1.24,17.29,17.29,0,0,0-.44-1.76,13.61,13.61,0,0,0-3-5.08l.24-.29a11.11,11.11,0,0,1,5.87,5.72,6.76,6.76,0,0,1,.31,1.17"/>
        <polygon class="cls-3" points="115.6 248.5 115.6 243.74 123.49 243.74 123.49 242.55 115.6 242.55 115.6 237.66 117.65 236.49 115.41 236.49 112.12 236.49 112.12 255.72 115.6 255.72 115.6 249.66 123.49 249.66 123.49 248.5 115.6 248.5"/>
        <rect class="cls-3" x="115.6" y="254.55" width="7.89" height="1.16"/>
        <rect class="cls-3" x="108.36" y="266.89" width="37.34" height="1.16"/>
        <rect class="cls-3" x="115.6" y="236.49" width="7.89" height="1.16"/>
        <rect class="cls-3" x="123.29" y="236.49" width="3.05" height="19.23"/>
        <polyline class="cls-3" points="126.34 236.49 124.31 234.6 122.39 236.49"/>
        <polygon class="cls-3" points="112.12 236.49 115.4 236.52 112.12 234.6 112.12 236.49"/>
        <polygon class="cls-3" points="143.2 264.55 140.81 266.89 145.7 266.89 143.2 264.55"/>
        <path class="cls-3" d="M110.72,262.2l.2.33a21.79,21.79,0,0,0,8-5.47h-4a12.3,12.3,0,0,1-4.22,5.14"/>
        <path class="cls-3" d="M133.13,267.71c-.68,4.43-6.59,14.56-24.5,17v.48c11.58-.74,24.76-4.23,29.09-17.51Z"/>
        <polygon class="cls-3" points="116.9 277.21 113.25 277.21 121.57 262.99 125.79 262.99 116.9 277.21"/>
        <path class="cls-3" d="M116.9,277.21c7,0,17.69.6,27.94,8.37l.77-.49c-4.14-4.25-16.49-11.06-27-11.22"/>
        <polygon class="cls-3" points="133.13 248.5 133.13 243.74 141.01 243.74 141.01 242.55 133.13 242.55 133.13 237.66 135.17 236.49 132.93 236.49 129.64 236.49 129.64 255.72 133.13 255.72 133.13 249.66 141.01 249.66 141.01 248.5 133.13 248.5"/>
        <rect class="cls-3" x="133.12" y="254.55" width="7.89" height="1.16"/>
        <rect class="cls-3" x="133.12" y="236.49" width="7.89" height="1.16"/>
        <rect class="cls-3" x="140.81" y="236.49" width="3.05" height="19.23"/>
        <polyline class="cls-3" points="143.86 236.49 141.84 234.6 139.91 236.49"/>
        <polygon class="cls-3" points="129.64 236.49 132.93 236.52 129.64 234.6 129.64 236.49"/>
        <path class="cls-3" d="M180.41,265.3l-.26-.29c-2.75,1.67-5.22,3.06-7.54,4.2v-16.7h7.16v-1.07l-2.49-2.39-2.39,2.29h-2.28V234.6h-3.48v16.74h-7.77v1.17h7.77v18.26a35.43,35.43,0,0,1-6.28,1.85l-.22,0,1,3,.2-.07c5.62-2.05,12.1-5.3,16.54-10.26"/>
        <path class="cls-3" d="M202,273.64c5.4-6.22,8.4-13.69,10.3-22.24v-.93l-2.51-2.4-2.38,2.3H187.9c.18-3.38.26-7,.26-10.81h24.16v-1.08l-2.51-2.39-2.38,2.28H183.56v1s0,.15,0,.44c0,.83.11,2.86.11,5.64,0,1.46,0,3.11-.08,4.92h-.05v1.19h0a115.38,115.38,0,0,1-1.9,17.54c-1.18,6-3.07,11.48-6,15l.3.24a37.25,37.25,0,0,0,8.54-14.2,72.13,72.13,0,0,0,3.27-18.57h19.51A43.24,43.24,0,0,1,200,271a41.21,41.21,0,0,1-6.05-14.1l-.06-.22-3.75,1.36,0,.16a40.28,40.28,0,0,0,7.73,15.63,52.08,52.08,0,0,1-12.71,11.26l.19.32A47.69,47.69,0,0,0,199.82,276a38.19,38.19,0,0,0,17.32,9.9l.16-.34C211,282,205.9,278.26,202,273.64"/>
        <path class="cls-3" d="M127.82,262.2l-.19.33a21.71,21.71,0,0,1-8-5.47h4a12.28,12.28,0,0,0,4.21,5.14"/>
        <path class="cls-3" d="M128.24,262.2l.2.33a21.79,21.79,0,0,0,8-5.47h-4a12.3,12.3,0,0,1-4.22,5.14"/>
        <path class="cls-3" d="M145.34,262.2l-.19.33a21.79,21.79,0,0,1-8-5.47h4a12.35,12.35,0,0,0,4.21,5.14"/>
      </g>
    </g>
  </g>
</svg>
